<?xml version="1.0" standalone="no"?>
<!DOCTYPE svg PUBLIC "-//W3C//DTD SVG 20010904//EN"
 "http://www.w3.org/TR/2001/REC-SVG-20010904/DTD/svg10.dtd">
<svg version="1.0" xmlns="http://www.w3.org/2000/svg"
 width="624.000000pt" height="535.000000pt" viewBox="0 0 624.000000 535.000000"
 preserveAspectRatio="xMidYMid meet">

<g transform="translate(0.000000,535.000000) scale(0.100000,-0.100000)"
fill="currentColor" stroke="none">
<path d="M1936 4795 c-423 -227 -773 -418 -778 -423 -8 -8 1517 -834 1554
-840 20 -4 101 38 658 338 201 108 490 263 643 345 217 116 275 151 265 161
-7 6 -148 84 -313 172 -165 88 -511 273 -768 411 -258 138 -474 251 -480 250
-7 0 -358 -187 -781 -414z"/>
<path d="M3625 3836 c-41 -27 -758 -421 -872 -480 l-32 -16 -133 71 c-236 126
-661 361 -733 406 -38 24 -73 43 -77 43 -11 0 -10 -249 2 -355 34 -298 184
-543 429 -703 96 -63 192 -103 318 -133 75 -18 108 -21 228 -16 168 6 262 28
390 92 223 110 401 313 481 547 38 113 64 271 71 431 7 168 9 166 -72 113z"/>
<path d="M4453 2426 c-375 -72 -676 -298 -839 -631 -81 -167 -105 -266 -111
-462 -6 -182 2 -246 49 -392 57 -179 134 -307 271 -448 343 -355 866 -450
1313 -239 119 57 199 112 297 205 179 170 292 374 341 613 21 102 21 341 1
438 -94 447 -413 782 -854 897 -120 31 -353 41 -468 19z m432 -301 c406 -118
665 -502 625 -928 -33 -350 -296 -656 -645 -751 -82 -23 -274 -32 -358 -17
-175 30 -334 110 -464 234 -123 117 -201 252 -243 421 -19 77 -22 109 -18 235
4 132 7 155 37 240 107 315 372 540 694 592 96 15 273 3 372 -26z"/>
<path d="M4160 1652 c0 -11 474 -482 485 -482 9 0 366 356 455 453 l34 37
-487 0 c-268 0 -487 -3 -487 -8z"/>
<path d="M4115 1328 c-4 -150 -5 -302 -3 -338 l3 -65 533 -3 532 -2 0 218 c0
121 -3 274 -7 341 l-6 123 -261 -261 -262 -262 -258 261 c-142 143 -259 260
-261 260 -1 0 -6 -123 -10 -272z"/>
<path d="M2425 2378 c-369 -41 -772 -211 -1110 -467 -100 -75 -328 -310 -411
-423 -247 -335 -385 -676 -439 -1081 -8 -65 -15 -140 -15 -168 l0 -49 1163 0
c640 0 1381 3 1647 7 l483 6 -29 21 c-58 41 -198 183 -261 266 -110 146 -199
352 -239 556 -26 129 -23 376 4 506 52 241 162 466 307 626 57 63 60 59 -75
103 -138 44 -279 77 -408 94 -126 17 -483 19 -617 3z"/>
</g>
</svg>
